<svg xmlns="http://www.w3.org/2000/svg" width="256" height="256" data-name="Layer 1" viewBox="0 0 256 256"><path fill="#fff" d="M103.4 157.2l-35.5 18.7-3-4.2 18.5-21.8h13.9l6.1 7.3zm2.9 3.4l8.7 10.5H86.4l19.9-10.5zm46.9-10.7l-17.6 21.2h-15.2l-17.6-21.2h50.4zm-3.5 10.7l19.9 10.5H141l8.7-10.5zm-63.5-30.1c-2.1-4.8-2.5-10.5-2.5-16a45.5 45.5 0 0 1 91 0 50.9 50.9 0 0 1-2.5 16zm-14.5 4.2h115v10.93h-115zm100.9 15.2l18.5 22-3 4-35.7-18.7 6.3-7.3h13.9z"/><path fill="#fff" d="M128 0L17.2 64v128L128 256l110.8-64V64zm67.3 173l-4.8 6.9a2.2 2.2 0 0 1-2.7.6l-10.1-5.2H78.2l-10.1 5.3a2.3 2.3 0 0 1-2.7-.6l-4.9-7a2.2 2.2 0 0 1 .2-2.5l17.5-20.6h-8.6a2 2 0 0 1-2.1-2.1v-15.2a2 2 0 0 1 2.1-2.1h12.2a58.8 58.8 0 0 1-2.3-16 49.7 49.7 0 0 1 99.4 0 51.7 51.7 0 0 1-2.3 16h12.2a2 2 0 0 1 2.1 2.1v15.1a2 2 0 0 1-2.1 2.1H178l17.2 20.6a2.2 2.2 0 0 1 .1 2.6z"/></svg>