<svg xmlns="http://www.w3.org/2000/svg" width="256" height="256" data-name="Layer 1" viewBox="0 0 256 256"><path fill="#fff" d="M78.4 157.8h13.5v13.24H78.4zm17.6 0h21v13.24H96zm25.3 0h13.4v13.24h-13.4zm17.6 0h21v13.24h-21zm35.3-45.6H81.8c1-27.1 21.7-42 46.3-42s45.1 14.9 46.1 42zm-10 45.6h13.5v13.24h-13.5zm-98.4-41.4v37.2h124.4v-37.2zm112.5 27.1H127a2.1 2.1 0 1 1 0-4.2h51.3a2.1 2.1 0 0 1 0 4.2z"/><path fill="#fff" d="M128 0L17.2 64v128L128 256l110.8-64V64zm66.4 155.7a2 2 0 0 1-2.1 2.1h-10.5V171h10.5a2.1 2.1 0 0 1 0 4.2H63.7a2.1 2.1 0 0 1 0-4.2h10.5v-13.2H63.7a2 2 0 0 1-2.1-2.1v-41.4a2 2 0 0 1 2.1-2.1h13.8C78.6 82.4 100.9 66 128 66s49.4 16.4 50.5 46.2h13.9a2 2 0 0 1 2.1 2.1z"/></svg>