<svg xmlns="http://www.w3.org/2000/svg" width="256" height="256" data-name="Layer 1" viewBox="0 0 256 256"><path fill="#fff" d="M90.4 127.8H67.9c6.5-25.4 29-45 55.9-46.7zm5.2 0l30.3-42.5v42.5H95.6zm-26.3 20h56.5v23.33H69.3zm60.8 0h9.5v23.33h-9.5zm13.7 0h42.9v23.33h-42.9zm44.3-20h-58V80.9a62.5 62.5 0 0 1 58 46.9zM57.4 132h141.3v11.56H57.4z"/><path fill="#fff" d="M128 0L17.2 64v128L128 256l110.8-64V64zm90.6 147.8h-27.8v25.4a2 2 0 0 1-2.1 2.1H67.2a2 2 0 0 1-2.1-2.1v-25.4H37.4a2.1 2.1 0 0 1 0-4.2h15.8v-13.7a2 2 0 0 1 2.1-2.1h8.2a66.6 66.6 0 0 1 64.3-51.1c.2-.2.4-.2.8 0 31.1.2 57 22.1 63.9 51.1h8.2a2 2 0 0 1 2.1 2.1v13.7h15.8a2.1 2.1 0 0 1 0 4.2z"/></svg>